<svg width="274" height="179" viewBox="0 0 274 179" fill="none" xmlns="http://www.w3.org/2000/svg">
<path d="M6.272 117.36V99.696L46.72 41.84H71.168V98.416H81.664V117.36H71.168V134H49.28V117.36H6.272ZM50.816 65.904L29.312 98.416H50.816V65.904Z" fill="#754437"/>
<g clip-path="url(#clip0_756_553)">
<path fill-rule="evenodd" clip-rule="evenodd" d="M183.253 66.7171C184.822 66.7171 186.094 67.9891 186.094 69.5586C186.094 71.1281 184.822 72.402 183.253 72.402C181.683 72.402 180.411 71.1281 180.411 69.5586C180.411 67.9891 181.683 66.7171 183.253 66.7171ZM170.707 79.3081C172.139 81.4294 173.636 82.7817 175.206 83.2063C176.709 83.6114 178.566 83.1887 180.836 81.7934C182.677 80.6623 185.088 81.2376 186.219 83.0791C186.603 83.7014 186.791 84.3883 186.799 85.0713C186.899 86.1672 186.961 87.2924 186.987 88.4431C187.014 89.6858 187 90.9108 186.94 92.1046C186.247 105.897 180.028 118.103 170.535 126.688C161.039 135.271 148.276 140.236 134.503 139.543C120.713 138.85 108.505 132.629 99.92 123.138C91.3349 113.643 86.3721 100.881 87.0649 87.1065C87.7576 73.3355 94.1412 61.0968 103.787 52.4647C113.47 43.8013 126.444 38.7621 140.245 39.4549C142.398 39.5566 144.063 41.3864 143.961 43.539C143.942 43.9617 143.855 44.3629 143.715 44.7367C142.891 47.4196 142.822 49.86 143.486 51.7602C144.032 53.3238 145.147 54.5351 146.812 55.1535C148.763 55.8795 149.789 58.0048 149.174 59.9695L149.184 59.9715C147.832 64.3061 147.797 68.0909 148.767 71.1007C149.331 72.8521 150.245 74.3433 151.437 75.5214C152.628 76.6995 154.124 77.586 155.85 78.1241C158.748 79.0263 162.3 78.9617 166.223 77.6956C167.947 77.1418 169.775 77.8502 170.707 79.3081ZM162.887 59.1887C165.249 59.1887 167.165 61.1046 167.165 63.4666C167.165 65.8286 165.249 67.7465 162.887 67.7465C160.523 67.7465 158.609 65.8286 158.609 63.4666C158.609 61.1046 160.523 59.1887 162.887 59.1887ZM166.194 41.4764C168.724 41.4764 170.775 43.5292 170.775 46.0596C170.775 48.5919 168.724 50.6427 166.194 50.6427C163.664 50.6427 161.611 48.5919 161.611 46.0596C161.611 43.5292 163.664 41.4764 166.194 41.4764Z" fill="#754437"/>
<path fill-rule="evenodd" clip-rule="evenodd" d="M167.417 81.4124C171.372 87.3165 176.382 89.1286 182.884 85.1286C183.1 87.3537 183.155 89.6218 183.039 91.9212C181.759 117.348 160.111 136.923 134.687 135.643C109.26 134.365 89.6868 112.716 90.9647 87.291C92.2426 61.8664 114.634 42.0777 140.061 43.3576C137.806 50.4085 139.712 56.6746 145.45 58.8096C140.246 75.5083 151.857 86.4339 167.417 81.4124Z" fill="#CC7A3D"/>
<path fill-rule="evenodd" clip-rule="evenodd" d="M113.935 78.1224C117.744 78.1224 120.832 81.2105 120.832 85.0187C120.832 88.8289 117.744 91.9169 113.935 91.9169C110.127 91.9169 107.039 88.8289 107.039 85.0187C107.039 81.2105 110.127 78.1224 113.935 78.1224ZM175.337 94.459C176.8 94.459 177.986 95.6449 177.986 97.1068C177.986 98.5686 176.8 99.7565 175.337 99.7565C173.875 99.7565 172.689 98.5686 172.689 97.1068C172.689 95.6449 173.875 94.459 175.337 94.459ZM163.511 97.1537C164.974 97.1537 166.158 98.3396 166.158 99.8015C166.158 101.263 164.974 102.449 163.511 102.449C162.049 102.449 160.863 101.263 160.863 99.8015C160.863 98.3396 162.049 97.1537 163.511 97.1537ZM151.685 91.1185C152.841 91.1185 153.779 92.0578 153.779 93.2144C153.779 94.371 152.841 95.3103 151.685 95.3103C150.526 95.3103 149.589 94.371 149.589 93.2144C149.589 92.0578 150.526 91.1185 151.685 91.1185ZM115.544 58.6919C117.006 58.6919 118.192 59.8778 118.192 61.3396C118.192 62.8015 117.006 63.9874 115.544 63.9874C114.08 63.9874 112.894 62.8015 112.894 61.3396C112.894 59.8778 114.08 58.6919 115.544 58.6919ZM135.644 86.9091C137.839 86.9091 139.618 88.688 139.618 90.8837C139.618 93.0774 137.839 94.8563 135.644 94.8563C133.45 94.8563 131.671 93.0774 131.671 90.8837C131.671 88.688 133.45 86.9091 135.644 86.9091ZM118.411 103.271C121.086 103.271 123.256 105.441 123.256 108.115C123.256 110.79 121.086 112.96 118.411 112.96C115.736 112.96 113.569 110.79 113.569 108.115C113.569 105.441 115.736 103.271 118.411 103.271ZM128.855 66.1948C130.955 66.1948 132.655 67.8974 132.655 69.9952C132.655 72.0931 130.955 73.7937 128.855 73.7937C126.757 73.7937 125.057 72.0931 125.057 69.9952C125.057 67.8974 126.757 66.1948 128.855 66.1948ZM149.483 104.97C152.998 104.97 155.849 107.819 155.849 111.336C155.849 114.852 152.998 117.702 149.483 117.702C145.967 117.702 143.117 114.852 143.117 111.336C143.117 107.819 145.967 104.97 149.483 104.97Z" fill="#5A2F24"/>
</g>
<path d="M193.272 117.36V99.696L233.72 41.84H258.168V98.416H268.664V117.36H258.168V134H236.28V117.36H193.272ZM237.816 65.904L216.312 98.416H237.816V65.904Z" fill="#754437"/>
<defs>
<clipPath id="clip0_756_553">
<rect width="100" height="100.215" fill="white" transform="translate(87 39.3926)"/>
</clipPath>
</defs>
</svg>
