<svg width="48" height="48" viewBox="0 0 48 48" fill="none" xmlns="http://www.w3.org/2000/svg">
<rect width="48" height="48" rx="24" fill="#4D2D1F"/>
<path d="M24 14C20.13 14 17 17.13 17 21C17 26.25 24 34 24 34C24 34 31 26.25 31 21C31 17.13 27.87 14 24 14ZM19 21C19 18.24 21.24 16 24 16C26.76 16 29 18.24 29 21C29 23.88 26.12 28.19 24 30.88C21.92 28.21 19 23.85 19 21Z" fill="white"/>
<path d="M24 23.5C24.663 23.5 25.2989 23.2366 25.7678 22.7678C26.2366 22.2989 26.5 21.663 26.5 21C26.5 20.337 26.2366 19.7011 25.7678 19.2322C25.2989 18.7634 24.663 18.5 24 18.5C23.337 18.5 22.7011 18.7634 22.2322 19.2322C21.7634 19.7011 21.5 20.337 21.5 21C21.5 21.663 21.7634 22.2989 22.2322 22.7678C22.7011 23.2366 23.337 23.5 24 23.5Z" fill="white"/>
</svg>
